<svg xmlns="http://www.w3.org/2000/svg" width="20.161" height="16.245" viewBox="0 0 20.161 16.245">
  <g id="Group_52" data-name="Group 52" transform="translate(-4504.797 -563.041)">
    <g id="Group_45" data-name="Group 45" transform="translate(4506.787 564.928)">
      <path id="Path_39" data-name="Path 39" d="M4525.3,580.483h-14.374a.915.915,0,0,1-.908-.773l-1.952-12.035a1.338,1.338,0,0,1,1.32-1.551h13.53a1.332,1.332,0,0,1,1.319,1.123l1.973,12.168a.92.92,0,0,1-.909,1.067Zm-15.913-13.493a.471.471,0,0,0-.465.547h0l1.951,12.035a.055.055,0,0,0,.054.046H4525.3a.052.052,0,0,0,.042-.02.051.051,0,0,0,.012-.043l-1.973-12.169a.47.47,0,0,0-.465-.4Z" transform="translate(-4508.048 -566.124)"/>
    </g>
    <g id="Group_46" data-name="Group 46" transform="translate(4504.797 564.928)">
      <path id="Path_40" data-name="Path 40" d="M4507.835,579.991h-2.118a.919.919,0,0,1-.908-1.067l1.945-11.513a1.529,1.529,0,0,1,1.515-1.287.433.433,0,1,1,0,.865.668.668,0,0,0-.661.563l-1.945,11.513a.045.045,0,0,0,.012.041.051.051,0,0,0,.041.02h2.118a.433.433,0,0,1,0,.865Z" transform="translate(-4504.798 -566.124)"/>
    </g>
    <g id="Group_47" data-name="Group 47" transform="translate(4508.185 563.042)">
      <path id="Path_41" data-name="Path 41" d="M4511.8,567.207a.433.433,0,0,1-.065-.861,1.581,1.581,0,0,0,.185-1.277c-.115-.748-.442-1.129-.558-1.16a.667.667,0,0,0-.172.373.433.433,0,0,1-.844-.19c.134-.595.457-.974.885-1.04.71-.108,1.361.684,1.545,1.887a3.2,3.2,0,0,1-.069,1.394c-.209.676-.615.835-.839.869A.413.413,0,0,1,4511.8,567.207Z" transform="translate(-4510.332 -563.042)"/>
    </g>
    <g id="Group_48" data-name="Group 48" transform="translate(4511.785 563.042)">
      <path id="Path_42" data-name="Path 42" d="M4517.679,567.207a.433.433,0,0,1-.065-.861,1.582,1.582,0,0,0,.184-1.277c-.115-.748-.441-1.129-.558-1.16a.664.664,0,0,0-.172.373.433.433,0,0,1-.844-.19c.134-.595.456-.974.884-1.04.71-.11,1.361.684,1.546,1.887a3.207,3.207,0,0,1-.07,1.394c-.208.676-.615.835-.839.869A.4.4,0,0,1,4517.679,567.207Z" transform="translate(-4516.213 -563.042)"/>
    </g>
    <g id="Group_49" data-name="Group 49" transform="translate(4515.332 563.042)">
      <path id="Path_43" data-name="Path 43" d="M4523.475,567.207a.433.433,0,0,1-.064-.861,1.581,1.581,0,0,0,.185-1.277c-.116-.748-.442-1.129-.559-1.16a.675.675,0,0,0-.172.373.433.433,0,0,1-.845-.19c.135-.595.457-.974.885-1.04.711-.108,1.361.684,1.546,1.887a3.2,3.2,0,0,1-.07,1.394c-.208.676-.615.835-.838.869A.405.405,0,0,1,4523.475,567.207Z" transform="translate(-4522.009 -563.042)"/>
    </g>
    <g id="Group_50" data-name="Group 50" transform="translate(4518.74 563.042)">
      <path id="Path_44" data-name="Path 44" d="M4529.044,567.208a.433.433,0,0,1-.065-.861,1.584,1.584,0,0,0,.184-1.277c-.115-.749-.442-1.129-.558-1.16a.671.671,0,0,0-.172.373.433.433,0,0,1-.844-.19c.134-.595.456-.974.885-1.04.711-.108,1.361.685,1.545,1.887a3.2,3.2,0,0,1-.07,1.394c-.208.676-.615.835-.838.869A.411.411,0,0,1,4529.044,567.208Z" transform="translate(-4527.578 -563.042)"/>
    </g>
  </g>
</svg>
