<svg xmlns="http://www.w3.org/2000/svg" width="178.964" height="32.816" viewBox="0 0 178.964 32.816">
  <g id="Group_1" data-name="Group 1" transform="translate(-69.355 -108.278)">
    <path id="Path_1" data-name="Path 1" d="M134.917,135.906a.716.716,0,0,0-.21-.993l-.081-.081-.038-.032a.756.756,0,0,0-.61-.143.66.66,0,0,0-.422.339,5.181,5.181,0,0,1-4.548,2.654,4.454,4.454,0,0,1-3.661-1.8,7.118,7.118,0,0,1-1.438-4.57A8.5,8.5,0,0,1,125,126.916a4,4,0,0,1,3.821-2.293A3.713,3.713,0,0,1,132,125.969a1.474,1.474,0,0,0-.631,1.3c0,.7.281,1.524,1.618,1.524.767,0,1.68-.318,1.68-1.835a3.158,3.158,0,0,0-1.433-2.466,6.988,6.988,0,0,0-4.507-1.421,7.2,7.2,0,0,0-5.278,2.127,8.463,8.463,0,0,0-2.341,6.238,8.227,8.227,0,0,0,2.217,5.989,7.141,7.141,0,0,0,5.308,2.158A6.864,6.864,0,0,0,134.917,135.906Z" transform="translate(-14.205 -4.059)" fill="#fff"/>
    <path id="Path_2" data-name="Path 2" d="M183.709,139.556a7.373,7.373,0,0,0,5.338-2.125,8.47,8.47,0,0,0,2.312-6.24,8.221,8.221,0,0,0-2.312-6.052,7.647,7.647,0,0,0-10.616-.03,9.32,9.32,0,0,0-.029,12.322A7.233,7.233,0,0,0,183.709,139.556Zm-3.5-13.165a4.286,4.286,0,0,1,6.906-.146,7.919,7.919,0,0,1,1.439,5.039,8.863,8.863,0,0,1-1,4.3,4.343,4.343,0,0,1-7.234.647,7.8,7.8,0,0,1-1.438-4.974A8.279,8.279,0,0,1,180.212,126.391Z" transform="translate(-29.295 -4.036)" fill="#fff"/>
    <path id="Path_3" data-name="Path 3" d="M204.493,134.966a5.954,5.954,0,0,1-1.209.177.645.645,0,0,0-.715.7.72.72,0,0,0,.724.672h6.614c.551,0,.747-.322.747-.623a.7.7,0,0,0-.735-.747h0a5.886,5.886,0,0,1-1.5-.228c-.242-.106-.565-.375-.565-1.481v-2.771a1.4,1.4,0,0,1,.5-1.078h0a1.4,1.4,0,0,1,1.976.18l3.266,3.923a2.77,2.77,0,0,1,.656,1.051c0,.287-.558.377-.892.4-.6.054-.724.385-.724.653a.658.658,0,0,0,.716.716h5.5a.673.673,0,0,0,.747-.686.717.717,0,0,0-.677-.712,5.173,5.173,0,0,1-2.864-2.09l-4.813-5.746,3.877-3.167a7.137,7.137,0,0,1,3.125-1.627.723.723,0,0,0,.667-.742.679.679,0,0,0-.747-.716h-5.752a.65.65,0,0,0-.716.685.706.706,0,0,0,.732.747c1.019.062,1.289.271,1.289.373,0,.119-.117.414-.905,1.053l-4.968,4.165V114.4a.685.685,0,0,0-.234-.558.7.7,0,0,0-.59-.123,28.067,28.067,0,0,1-3.717.369.732.732,0,0,0,.02,1.463h0a5.925,5.925,0,0,1,1.41.168c.37.149.557.646.557,1.479v16.231C205.3,134.308,205.038,134.81,204.493,134.966Z" transform="translate(-36.562 -1.49)" fill="#fff"/>
    <path id="Path_4" data-name="Path 4" d="M238.2,122.982a7.2,7.2,0,0,0-5.278,2.127,9.321,9.321,0,0,0-.03,12.322,7.236,7.236,0,0,0,5.307,2.125,7.374,7.374,0,0,0,5.338-2.125,8.469,8.469,0,0,0,2.311-6.24,8.223,8.223,0,0,0-2.31-6.052A7.186,7.186,0,0,0,238.2,122.982Zm3.853,12.6a4.343,4.343,0,0,1-7.234.647,7.8,7.8,0,0,1-1.438-4.974,8.274,8.274,0,0,1,1.323-4.863,4.285,4.285,0,0,1,6.906-.146,7.915,7.915,0,0,1,1.44,5.039A8.863,8.863,0,0,1,242.055,135.581Z" transform="translate(-44.251 -4.036)" fill="#fff"/>
    <path id="Path_5" data-name="Path 5" d="M280.319,123.8h-5.037c-.467,0-.747.245-.747.654a.74.74,0,0,0,.733.747c.562.03,1.5.164,1.5.715a2.677,2.677,0,0,1-.2.947l-2.748,8.195a.4.4,0,0,1-.76,0l-2.8-8.13a5.943,5.943,0,0,1-.237-.921c0-.189,0-.691,1.3-.809.654-.059.724-.5.724-.683a.666.666,0,0,0-.747-.716h-5.378c-.65,0-.747.409-.747.654a.713.713,0,0,0,.689.746,2.16,2.16,0,0,1,1.145.351,4.005,4.005,0,0,1,.792,1.569l.092.254L264.87,135.2a.4.4,0,0,1-.754-.012l-2.9-8.334a3.16,3.16,0,0,1-.2-.853c0-.17,0-.688,1.327-.809.654-.059.725-.5.725-.683a.667.667,0,0,0-.747-.716h-5.5c-.65,0-.747.409-.747.654a.726.726,0,0,0,.678.744,2.536,2.536,0,0,1,1.979,1.919l4.32,12.309a.745.745,0,0,0,.765.575h.249a.792.792,0,0,0,.792-.532l3.892-9.889,3.5,9.837a.732.732,0,0,0,.768.584h.187a.778.778,0,0,0,.794-.571l4.508-12.747a2.118,2.118,0,0,1,1.848-1.484.69.69,0,0,0,.684-.745A.644.644,0,0,0,280.319,123.8Z" transform="translate(-51.246 -4.259)" fill="#fff"/>
    <path id="Path_6" data-name="Path 6" d="M310.052,137.261c-.467-.332-.805.1-.938.274a.793.793,0,0,1-.637.395c-.528,0-.807-.989-.807-2.859v-6.312c0-3.776-1.925-5.69-5.722-5.69a6.655,6.655,0,0,0-4.191,1.323,3.2,3.2,0,0,0-1.531,2.533,1.572,1.572,0,0,0,1.742,1.773,1.432,1.432,0,0,0,1.617-1.587,1.223,1.223,0,0,0-.733-1.271,3.315,3.315,0,0,1,2.94-1.216c2.3,0,3.419,1.445,3.419,4.415v.324l-1.35.08c-5.706.318-8.6,2.222-8.6,5.659a4.113,4.113,0,0,0,1.552,3.364,5.447,5.447,0,0,0,3.578,1.146,6.223,6.223,0,0,0,5.1-2.32,2.294,2.294,0,0,0,2.46,2.227,2.531,2.531,0,0,0,2.264-1.3l.01-.019A.723.723,0,0,0,310.052,137.261Zm-4.841-3.2a3.449,3.449,0,0,1-.973,2.452,3.238,3.238,0,0,1-.334.291,4.759,4.759,0,0,1-3.108,1.064,2.7,2.7,0,0,1-2.036-.8,2.8,2.8,0,0,1-.823-2.15c0-2.421,2.1-3.739,6.229-3.918l1.044-.049Z" transform="translate(-62.004 -4.059)" fill="#fff"/>
    <path id="Path_7" data-name="Path 7" d="M100.462,128.868a5.479,5.479,0,0,0,1.573-4.015,6.475,6.475,0,0,0-2.5-5.214,9.663,9.663,0,0,0-6.381-1.894,9.136,9.136,0,0,0-6.078,2.038,6.419,6.419,0,0,0-1.241,1.462,5.92,5.92,0,0,0-1.028-1.481,5.409,5.409,0,0,0-3.842-1.709c-.036-.369-.063-.749-.07-1.15a8.411,8.411,0,0,1,1.271-5.091,4.377,4.377,0,0,1,3.7-1.893,4.117,4.117,0,0,1,2.978,1.032,3.8,3.8,0,0,1,1.136,2.638.092.092,0,0,1-.154.069,1.479,1.479,0,0,0-1.012-.358c-.573,0-1.535.229-1.535,1.762a1.836,1.836,0,0,0,1.83,1.828c.852-.036,2.684-.412,2.661-2.377a6.734,6.734,0,0,0-1.9-4.663,5.479,5.479,0,0,0-4.015-1.573,6.475,6.475,0,0,0-5.214,2.5,9.662,9.662,0,0,0-1.894,6.38,9.137,9.137,0,0,0,2.038,6.079,6.419,6.419,0,0,0,1.588,1.323,5.9,5.9,0,0,0-1.606,1.082,5.4,5.4,0,0,0-1.709,3.782c-.348.033-.706.057-1.084.062a8.414,8.414,0,0,1-5.091-1.271,4.375,4.375,0,0,1-1.892-3.7,4.117,4.117,0,0,1,1.032-2.978,3.8,3.8,0,0,1,2.639-1.137.092.092,0,0,1,.068.154,1.48,1.48,0,0,0-.358,1.013c0,.573.229,1.535,1.762,1.535a1.835,1.835,0,0,0,1.827-1.829c-.035-.853-.412-2.685-2.376-2.662a6.743,6.743,0,0,0-4.664,1.9,5.484,5.484,0,0,0-1.573,4.015,6.478,6.478,0,0,0,2.5,5.214,9.656,9.656,0,0,0,6.381,1.894,9.14,9.14,0,0,0,6.079-2.037,6.475,6.475,0,0,0,1.241-1.463,5.924,5.924,0,0,0,1.027,1.481,5.411,5.411,0,0,0,3.842,1.71c.037.369.063.748.07,1.15a8.414,8.414,0,0,1-1.271,5.091,4.375,4.375,0,0,1-3.7,1.892,4.117,4.117,0,0,1-2.978-1.032,3.8,3.8,0,0,1-1.137-2.639.092.092,0,0,1,.154-.068,1.483,1.483,0,0,0,1.013.358c.573,0,1.535-.229,1.535-1.762a1.837,1.837,0,0,0-1.829-1.828c-.853.036-2.685.412-2.662,2.377a6.743,6.743,0,0,0,1.9,4.664,5.481,5.481,0,0,0,4.015,1.572,6.475,6.475,0,0,0,5.214-2.5,9.656,9.656,0,0,0,1.894-6.381,9.134,9.134,0,0,0-2.037-6.079,6.413,6.413,0,0,0-1.588-1.323,5.915,5.915,0,0,0,1.606-1.083,5.4,5.4,0,0,0,1.708-3.781c.349-.033.707-.057,1.084-.063a8.411,8.411,0,0,1,5.091,1.271,4.377,4.377,0,0,1,1.893,3.7,4.117,4.117,0,0,1-1.032,2.978,3.8,3.8,0,0,1-2.638,1.136.092.092,0,0,1-.069-.154,1.479,1.479,0,0,0,.358-1.012c0-.573-.229-1.535-1.762-1.535a1.836,1.836,0,0,0-1.828,1.83c.036.852.412,2.684,2.377,2.661A6.734,6.734,0,0,0,100.462,128.868Zm-19.125-8.891a4.058,4.058,0,0,1,1.138.234,3.56,3.56,0,0,1,1.738,1.483,4.5,4.5,0,0,1,.655,1.977,4.41,4.41,0,0,1-2.5-1.633A6.348,6.348,0,0,1,81.337,119.977Zm1.778,8.037a6.406,6.406,0,0,1-2.124,1.051,4,4,0,0,1,.229-1.092,3.56,3.56,0,0,1,1.483-1.738,4.5,4.5,0,0,1,2.029-.66A4.414,4.414,0,0,1,83.116,128.015Zm6.939,1.38a4.038,4.038,0,0,1-1.139-.234,3.564,3.564,0,0,1-1.737-1.482,4.494,4.494,0,0,1-.656-1.977,4.414,4.414,0,0,1,2.5,1.632A6.355,6.355,0,0,1,90.055,129.395Zm.116-8a3.562,3.562,0,0,1-1.482,1.738,4.5,4.5,0,0,1-2.029.66,4.411,4.411,0,0,1,1.617-2.437,6.375,6.375,0,0,1,2.124-1.051A3.938,3.938,0,0,1,90.171,121.4Z" transform="translate(0 0)" fill="#fff"/>
    <path id="Path_8" data-name="Path 8" d="M145.638,115.556h0a18.4,18.4,0,0,1,2.089.169c.37.182.558.679.558,1.478v16.231c0,.874-.266,1.376-.812,1.532a5.954,5.954,0,0,1-1.209.177.645.645,0,0,0-.715.7.721.721,0,0,0,.725.672h6.52c.551,0,.747-.322.747-.623a.7.7,0,0,0-.735-.747h0a5.31,5.31,0,0,1-1.4-.228c-.242-.106-.565-.375-.565-1.481v-6.271a4.906,4.906,0,0,1,1.242-3.323,4.235,4.235,0,0,1,3.266-1.382c2.154,0,3.2,1.455,3.2,4.446v6.53c0,.908-.271,1.434-.806,1.561a6.978,6.978,0,0,1-1.152.148.651.651,0,0,0-.747.654.667.667,0,0,0,.747.716h6.5a.687.687,0,1,0,.014-1.371h0a5.5,5.5,0,0,1-1.412-.231c-.371-.181-.559-.678-.559-1.477v-6.965c0-3.879-1.8-5.846-5.349-5.846a6.117,6.117,0,0,0-4.943,2.5V114.4a.685.685,0,0,0-.234-.558.7.7,0,0,0-.59-.123,38.6,38.6,0,0,1-4.4.369.732.732,0,0,0,.021,1.463Z" transform="translate(-20.735 -1.49)" fill="#fff"/>
  </g>
</svg>
